<svg width="73" height="39" viewBox="0 0 73 39" fill="none" xmlns="http://www.w3.org/2000/svg">
<path d="M0.612869 0.661178C0.223595 1.05142 0.00324249 1.58171 8.39233e-05 2.13586C-0.00246429 2.41088 0.0505676 2.68353 0.155937 2.9371C0.261307 3.19068 0.416794 3.41983 0.612869 3.61054L35.0167 38.3835C35.2074 38.5788 35.4345 38.7338 35.685 38.8397C35.9355 38.9455 36.2042 39 36.4757 39C36.7472 39 37.0159 38.9455 37.2664 38.8397C37.5169 38.7338 37.744 38.5788 37.9347 38.3835L72.3458 3.61054C72.5481 3.41934 72.7102 3.18898 72.8225 2.93316C72.9348 2.67734 72.9951 2.4013 72.9997 2.12146C73.0043 1.84161 72.9532 1.56369 72.8494 1.30423C72.7455 1.04477 72.5911 0.809076 72.3953 0.611171C72.1995 0.413265 71.9663 0.257196 71.7096 0.152249C71.4529 0.0473023 71.1779 -0.00437567 70.9011 0.00028998C70.6242 0.00495563 70.3511 0.0658697 70.098 0.179407C69.8449 0.292945 69.617 0.456785 69.4278 0.661178L36.4757 33.9594L3.53092 0.661178C3.33973 0.466778 3.1124 0.312503 2.86201 0.207229C2.61161 0.101955 2.34309 0.047759 2.07189 0.047759C1.8007 0.047759 1.53218 0.101955 1.28179 0.207229C1.03139 0.312503 0.804062 0.466778 0.612869 0.661178Z" fill="white"/>
</svg>
